<svg xmlns="http://www.w3.org/2000/svg" version="1.1" xmlns:xlink="http://www.w3.org/1999/xlink" xmlns:svgjs="http://svgjs.dev/svgjs" width="3000" height="3000" preserveAspectRatio="none" viewBox="0 0 3000 3000"><g mask="url(&quot;#SvgjsMask1034&quot;)" fill="none"><rect width="3000" height="3000" x="0" y="0" fill="url(&quot;#SvgjsLinearGradient1035&quot;)"></rect><path d="M3000 0L1880.9 0L3000 1050.03z" fill="rgba(255, 255, 255, .1)"></path><path d="M1880.9 0L3000 1050.03L3000 2022.6L1382.2600000000002 0z" fill="rgba(255, 255, 255, .075)"></path><path d="M1382.2600000000002 0L3000 2022.6L3000 2430.38L1221.3400000000001 0z" fill="rgba(255, 255, 255, .05)"></path><path d="M1221.3400000000001 0L3000 2430.38L3000 2473.37L359.97000000000014 0z" fill="rgba(255, 255, 255, .025)"></path><path d="M0 3000L723.4 3000L0 1940.36z" fill="rgba(0, 0, 0, .1)"></path><path d="M0 1940.36L723.4 3000L1880.0900000000001 3000L0 1911.33z" fill="rgba(0, 0, 0, .075)"></path><path d="M0 1911.33L1880.0900000000001 3000L2057.78 3000L0 1550.05z" fill="rgba(0, 0, 0, .05)"></path><path d="M0 1550.05L2057.78 3000L2181.21 3000L0 871.74z" fill="rgba(0, 0, 0, .025)"></path></g><defs><mask id="SvgjsMask1034"><rect width="3000" height="3000" fill="#ffffff"></rect></mask><linearGradient x1="0%" y1="0%" x2="100%" y2="100%" gradientUnits="userSpaceOnUse" id="SvgjsLinearGradient1035"><stop stop-color="#0e2a47" offset="0"></stop><stop stop-color="#00459e" offset="1"></stop></linearGradient></defs></svg>